<svg width="518" height="517" viewBox="0 0 518 517" fill="none" xmlns="http://www.w3.org/2000/svg">
<path d="M517.5 258.5C517.5 327.059 490.266 392.81 441.788 441.288C393.31 489.766 327.559 517 259 517C237.599 516.995 216.284 514.312 195.55 509.01C177.399 504.406 159.821 497.786 143.145 489.27C100.32 467.798 64.3039 434.851 39.1157 394.102C13.9274 353.353 0.55828 306.405 0.5 258.5C0.5 255.445 0.5 252.155 0.5 249.1C1.38031 228.38 4.85408 207.855 10.84 188C28.2133 128.413 66.4457 77.0675 118.552 43.3436C170.656 9.61972 233.157 -4.23071 294.633 4.32329C356.107 12.8773 412.453 43.2647 453.373 89.9326C494.291 136.601 517.054 196.434 517.5 258.5Z" fill="#0277BD"/>
<path d="M184.74 459.425C182.938 462.059 180.62 464.299 177.925 466.005L143.145 489.505C100.285 468.017 64.2447 435.032 39.0541 394.238C13.8633 353.442 0.51457 306.447 0.5 258.5C0.5 255.445 0.5 252.155 0.5 249.1C1.38031 228.382 4.85408 207.855 10.84 188C43.0559 168.885 77.154 153.135 112.595 141.001C123.217 136.618 134.687 134.68 146.158 135.331C157.63 135.982 168.807 139.205 178.865 144.761C212.705 169.671 209.885 231.71 184.74 270.485C176.656 282.846 166.191 293.47 153.955 301.74C176.405 307.38 195.985 321.102 208.945 340.28C225.395 370.36 217.405 408.9 184.74 459.425Z" fill="#7CB342"/>
<path d="M517.5 258.5C517.484 297.11 508.894 335.237 492.355 370.125L470.5 368.245L465.095 367.07C410.105 348.74 351.59 305.5 345.715 258.5C339.605 207.035 364.045 144.29 450.76 121.73C454.844 120.676 459.131 120.676 463.215 121.73L481.545 127.135C505.057 166.923 517.474 212.285 517.5 258.5Z" fill="#558B2F"/>
<path d="M10.84 186.59C4.73658 206.899 1.26163 227.908 0.5 249.1C0.5 252.155 0.5 255.445 0.5 258.5C0.55828 306.405 13.9274 353.353 39.1157 394.102C64.3039 434.851 100.32 467.8 143.145 489.27C159.821 497.786 177.399 504.406 195.55 509.01C216.284 514.312 237.599 516.995 259 517V0C203.009 0.02961 148.538 18.2386 103.786 51.888C59.0333 85.5374 26.416 132.808 10.84 186.59Z" fill="#039BE5"/>
<path d="M184.74 459.425C182.938 462.059 180.62 464.299 177.925 466.005L143.145 489.505C100.285 468.017 64.2447 435.032 39.0541 394.238C13.8633 353.442 0.51457 306.447 0.5 258.5C0.5 255.445 0.5 252.155 0.5 249.1C1.38031 228.382 4.85408 207.855 10.84 188C43.0559 168.885 77.154 153.135 112.595 141.001C123.217 136.618 134.687 134.68 146.158 135.331C157.63 135.982 168.807 139.205 178.865 144.761C212.705 169.671 209.885 231.71 184.74 270.485C176.656 282.846 166.191 293.47 153.955 301.74C176.405 307.38 195.985 321.102 208.945 340.28C225.395 370.36 217.405 408.9 184.74 459.425Z" fill="#7CB342"/>
</svg>
