<svg width="677" height="752" viewBox="0 0 677 752" fill="none" xmlns="http://www.w3.org/2000/svg">
<path d="M634.5 305.5C634.5 374.059 607.266 439.81 558.788 488.288C510.31 536.766 444.559 564 376 564C354.599 563.995 333.284 561.312 312.55 556.01C294.399 551.406 276.821 544.786 260.145 536.27C217.32 514.798 181.304 481.851 156.116 441.102C130.927 400.353 117.558 353.405 117.5 305.5C117.5 302.445 117.5 299.155 117.5 296.1C118.38 275.38 121.854 254.855 127.84 235C145.213 175.413 183.446 124.068 235.552 90.3436C287.656 56.6197 350.157 42.7693 411.633 51.3233C473.107 59.8773 529.453 90.2647 570.373 136.933C611.291 183.601 634.054 243.434 634.5 305.5Z" fill="#0277BD"/>
<path d="M301.74 506.425C299.938 509.059 297.62 511.299 294.925 513.005L260.145 536.505C217.285 515.017 181.245 482.032 156.054 441.238C130.863 400.442 117.515 353.447 117.5 305.5C117.5 302.445 117.5 299.155 117.5 296.1C118.38 275.382 121.854 254.855 127.84 235C160.056 215.885 194.154 200.135 229.595 188.001C240.217 183.618 251.687 181.68 263.158 182.331C274.63 182.982 285.807 186.205 295.865 191.761C329.705 216.671 326.885 278.71 301.74 317.485C293.656 329.846 283.191 340.47 270.955 348.74C293.405 354.38 312.985 368.102 325.945 387.28C342.395 417.36 334.405 455.9 301.74 506.425Z" fill="#7CB342"/>
<path d="M634.5 305.5C634.484 344.11 625.894 382.237 609.355 417.125L587.5 415.245L582.095 414.07C527.105 395.74 468.59 352.5 462.715 305.5C456.605 254.035 481.045 191.29 567.76 168.73C571.844 167.676 576.131 167.676 580.215 168.73L598.545 174.135C622.057 213.923 634.474 259.285 634.5 305.5Z" fill="#558B2F"/>
<path d="M127.84 233.59C121.737 253.899 118.262 274.908 117.5 296.1C117.5 299.155 117.5 302.445 117.5 305.5C117.558 353.405 130.927 400.353 156.116 441.102C181.304 481.851 217.32 514.8 260.145 536.27C276.821 544.786 294.399 551.406 312.55 556.01C333.284 561.312 354.599 563.995 376 564V47C320.009 47.0296 265.538 65.2386 220.786 98.888C176.033 132.537 143.416 179.808 127.84 233.59Z" fill="#039BE5"/>
<path d="M301.74 506.425C299.938 509.059 297.62 511.299 294.925 513.005L260.145 536.505C217.285 515.017 181.245 482.032 156.054 441.238C130.863 400.442 117.515 353.447 117.5 305.5C117.5 302.445 117.5 299.155 117.5 296.1C118.38 275.382 121.854 254.855 127.84 235C160.056 215.885 194.154 200.135 229.595 188.001C240.217 183.618 251.687 181.68 263.158 182.331C274.63 182.982 285.807 186.205 295.865 191.761C329.705 216.671 326.885 278.71 301.74 317.485C293.656 329.846 283.191 340.47 270.955 348.74C293.405 354.38 312.985 368.102 325.945 387.28C342.395 417.36 334.405 455.9 301.74 506.425Z" fill="#7CB342"/>
</svg>
