<svg width="44" height="44" viewBox="0 0 44 44" fill="none" xmlns="http://www.w3.org/2000/svg">
<path d="M25.9283 29.2639C26.1619 29.731 25.9587 30.2984 25.4817 30.5111L8.24534 38.1975C5.50299 39.4205 2.65846 36.705 4.01682 34.1607L9.79554 23.3372C10.245 22.4954 10.245 21.5046 9.79554 20.6628L4.01682 9.8393C2.65844 7.29509 5.50299 4.57947 8.24534 5.80243L14.7066 8.68381C15.4819 9.02954 16.1131 9.63355 16.4928 10.3928L25.9283 29.2639Z" fill="#1C274C"/>
<path opacity="0.5" d="M28.4775 28.2157C28.697 28.6544 29.2228 28.8427 29.6708 28.6431L38.5121 24.7001C40.9391 23.6179 40.9391 20.3832 38.5121 19.301L22.1997 12.0264C21.4137 11.6758 20.6215 12.5038 21.0063 13.2735L28.4775 28.2157Z" fill="#1C274C"/>
</svg>
